<?xml version="1.0" encoding="iso-8859-1"?>
<!-- Generator: Adobe Illustrator 19.0.0, SVG Export Plug-In . SVG Version: 6.00 Build 0)  -->
<svg version="1.1" id="Capa_1" xmlns="http://www.w3.org/2000/svg" xmlns:xlink="http://www.w3.org/1999/xlink" x="0px" y="0px"
	 viewBox="0 0 511.926 511.926" style="enable-background:new 0 0 511.926 511.926;" xml:space="preserve">
<g>
	<g>
		<path d="M465.544,20.002h-0.086c-2.202,0-3.951,1.789-3.951,3.999c0,2.211,1.827,4,4.037,4c2.203,0,4-1.788,4-4
			C469.544,21.791,467.747,20.002,465.544,20.002z"/>
	</g>
</g>
<g>
	<g>
		<path d="M448.579,36.967h-0.086c-2.202,0-3.952,1.789-3.952,4c0,2.21,1.828,3.999,4.038,3.999c2.203,0,3.999-1.789,3.999-3.999
			C452.578,38.756,450.782,36.967,448.579,36.967z"/>
	</g>
</g>
<g>
	<g>
		<path d="M431.614,53.933h-0.086c-2.203,0-3.952,1.789-3.952,3.999s1.827,3.999,4.038,3.999c2.203,0,3.999-1.789,3.999-3.999
			S433.817,53.933,431.614,53.933z"/>
	</g>
</g>
<g>
	<g>
		<path d="M488.165,42.622h-0.086c-2.203,0-3.953,1.79-3.953,4s1.828,3.999,4.039,3.999c2.202,0,3.999-1.788,3.999-3.999
			S490.367,42.622,488.165,42.622z"/>
	</g>
</g>
<g>
	<g>
		<path d="M471.199,59.588h-0.086c-2.202,0-3.952,1.789-3.952,4c0,2.21,1.828,3.999,4.038,3.999c2.203,0,3.999-1.79,3.999-3.999
			C475.198,61.377,473.402,59.588,471.199,59.588z"/>
	</g>
</g>
<g>
	<g>
		<path d="M454.234,76.553h-0.086c-2.202,0-3.952,1.789-3.952,3.999s1.828,3.999,4.038,3.999c2.203,0,3.999-1.789,3.999-3.999
			S456.436,76.553,454.234,76.553z"/>
	</g>
</g>
<g>
	<g>
		<path d="M250.754,227.24c-22.644-22.643-40.073-32.723-54.594-31.618c-16.333,1.199-26.928,15.449-39.195,31.958
			c-12.513,16.832-26.694,35.91-50.427,46.614l-10.189,4.555c-41.331,18.386-88.176,39.217-95.405,78.193
			c-5.299,28.556,11.666,61.979,51.864,102.173c0.782,0.781,1.805,1.172,2.828,1.172s2.046-0.39,2.827-1.171
			c1.562-1.562,1.562-4.093,0-5.655c-38.195-38.195-54.437-69.29-49.657-95.058c6.463-34.836,51.266-54.762,90.793-72.344
			l10.228-4.569c25.627-11.567,41.112-32.399,53.559-49.141c11.552-15.544,20.679-27.818,33.356-28.748
			c11.994-0.946,27.772,8.709,48.357,29.294c1.562,1.562,4.093,1.562,5.655,0S252.316,228.802,250.754,227.24z"/>
	</g>
</g>
<g>
	<g>
		<path d="M284.684,261.177c-1.562-1.562-4.092-1.562-5.654,0s-1.562,4.089,0,5.651c20.589,20.589,30.173,36.406,29.298,48.357
			c-0.93,12.677-13.2,21.8-28.744,33.352c-16.746,12.444-37.586,27.924-49.15,53.551l-4.573,10.232
			c-17.578,39.531-37.504,84.326-72.34,90.793c-25.757,4.773-56.863-11.458-95.058-49.653c-1.562-1.562-4.093-1.562-5.655,0
			s-1.562,4.093,0,5.655c35.426,35.43,65.588,52.809,91.797,52.801c3.526,0,6.987-0.312,10.376-0.936
			c38.972-7.232,59.807-54.082,78.19-95.408l4.55-10.186c10.713-23.738,29.795-37.922,46.635-50.435
			c16.505-12.263,30.752-22.855,31.946-39.18C317.372,301.164,307.328,283.817,284.684,261.177z"/>
	</g>
</g>
<g>
	<g>
		<path d="M228.369,283.551c-6.858-6.858-15.981-10.638-25.686-10.638c-9.705,0-18.825,3.781-25.682,10.638
			c-6.863,6.859-10.643,15.982-10.643,25.683c0,9.709,3.777,18.825,10.635,25.682c6.861,6.866,15.984,10.646,25.689,10.646
			c9.705,0,18.828-3.781,25.687-10.646c6.862-6.858,10.638-15.973,10.638-25.682C239.007,299.532,235.231,290.409,228.369,283.551z
			 M222.713,329.259c-10.701,10.701-29.365,10.701-40.066,0c-5.346-5.349-8.291-12.458-8.291-20.026
			c0-7.561,2.949-14.676,8.299-20.027c5.347-5.351,12.463-8.295,20.027-8.295c7.569,0,14.681,2.945,20.031,8.295
			c5.35,5.35,8.295,12.465,8.295,20.027C231.008,316.801,228.063,323.909,222.713,329.259z"/>
	</g>
</g>
<g>
	<g>
		<path d="M171.575,408.219l-67.868-67.868c-1.562-1.562-4.093-1.562-5.655,0l-11.314,11.311c-0.749,0.749-1.171,1.765-1.171,2.827
			c0,1.062,0.421,2.077,1.171,2.827l16.508,16.505l11.021,22.042c0.387,0.773,1.016,1.398,1.789,1.789l22.042,11.021l16.509,16.512
			c0.749,0.75,1.765,1.172,2.827,1.172c1.063,0,2.078-0.422,2.827-1.173l11.314-11.31c0.75-0.75,1.172-1.766,1.172-2.828
			C172.747,409.985,172.325,408.969,171.575,408.219z M157.435,416.703l-14.138-14.146c-0.305-0.305-0.657-0.555-1.039-0.75
			l-21.433-10.716l-10.711-21.424c-0.192-0.383-0.446-0.734-0.75-1.039L95.222,354.49l5.659-5.655l62.213,62.213L157.435,416.703z"
			/>
	</g>
</g>
<g>
	<g>
		<path d="M256.408,232.895c-1.561-1.562-4.092-1.562-5.654,0L115.017,368.627c-1.562,1.562-1.562,4.092,0,5.654
			c0.781,0.781,1.805,1.172,2.828,1.172s2.046-0.39,2.827-1.172L256.408,238.55C257.971,236.988,257.971,234.457,256.408,232.895z"
			/>
	</g>
</g>
<g>
	<g>
		<path d="M479.44,32.484c-1.562-1.562-4.093-1.562-5.655,0L126.332,379.937c-1.562,1.562-1.562,4.093,0,5.655
			c0.781,0.781,1.804,1.172,2.827,1.172s2.047-0.391,2.828-1.172L479.44,38.139C481.002,36.577,481.002,34.046,479.44,32.484z"/>
	</g>
</g>
<g>
	<g>
		<path d="M279.029,255.514c-1.562-1.562-4.093-1.562-5.655,0L137.641,391.247c-1.562,1.561-1.562,4.093,0,5.655
			c0.781,0.781,1.805,1.171,2.828,1.171s2.047-0.389,2.827-1.171l135.733-135.733C280.591,259.607,280.591,257.076,279.029,255.514z
			"/>
	</g>
</g>
<g>
	<g>
		<path d="M414.462,80.604c-1.539-1.586-4.07-1.637-5.655-0.102L250.805,232.843c-1.589,1.531-1.636,4.066-0.101,5.655
			c0.785,0.813,1.831,1.223,2.878,1.223c1,0,1.999-0.371,2.776-1.121L414.353,86.259C415.946,84.728,415.993,82.193,414.462,80.604z
			"/>
	</g>
</g>
<g>
	<g>
		<path d="M431.317,97.466c-1.578-1.526-4.116-1.483-5.655,0.102L273.321,255.565c-1.532,1.59-1.485,4.125,0.109,5.655
			c0.772,0.75,1.772,1.121,2.772,1.121c1.047,0,2.094-0.41,2.883-1.223l152.341-157.997
			C432.958,101.531,432.911,98.997,431.317,97.466z"/>
	</g>
</g>
<g>
	<g>
		<path d="M450.993,94.87c-3.14-3.132-7.81-4.491-12.701-3.823c-4.592,0.655-9.123,3.018-12.747,6.65
			c-1.562,1.566-1.562,4.097,0,5.659c0.781,0.777,1.805,1.168,2.828,1.168s2.046-0.391,2.827-1.171
			c2.383-2.383,5.374-3.98,8.217-4.386c1.461-0.192,4.101-0.262,5.921,1.558c1.561,1.562,4.093,1.562,5.655,0
			C452.555,98.963,452.555,96.432,450.993,94.87z"/>
	</g>
</g>
<g>
	<g>
		<path d="M417.062,60.937c-1.561-1.57-4.093-1.562-5.655-0.008c-1.562,1.562-1.562,4.093,0,5.655
			c3.063,3.069,1.766,9.548-2.827,14.149c-1.562,1.566-1.562,4.097,0,5.659c0.781,0.776,1.804,1.167,2.827,1.167
			c1.024,0,2.047-0.391,2.828-1.17C422.155,78.457,423.397,67.28,417.062,60.937z"/>
	</g>
</g>
<g>
	<g>
		<path d="M470.816,1.237c-1.624-1.472-4.171-1.359-5.655,0.281l-53.895,59.558c-1.476,1.636-1.351,4.167,0.281,5.647
			c0.766,0.695,1.727,1.035,2.688,1.035c1.086,0,2.179-0.445,2.967-1.316l53.895-59.558C472.574,5.248,472.449,2.717,470.816,1.237z
			"/>
	</g>
</g>
<g>
	<g>
		<path d="M510.697,41.112c-1.491-1.644-4.021-1.758-5.654-0.281l-59.565,53.902c-1.633,1.48-1.758,4.011-0.281,5.647
			c0.789,0.871,1.882,1.316,2.968,1.316c0.961,0,1.922-0.339,2.687-1.035l59.565-53.902
			C512.049,45.279,512.174,42.748,510.697,41.112z"/>
	</g>
</g>
<g>
	<g>
		<path d="M496.422,15.52C478.613-2.285,468.67-0.199,466.865,0.41c-2.093,0.695-3.343,2.996-2.64,5.089
			c0.695,2.097,2.835,3.246,4.944,2.562c0.047,0,7.217-1.258,21.597,13.114c14.208,14.212,13.146,21.358,13.169,21.358
			c0,0,0,0,0-0.004c-0.696,2.098,0.437,4.363,2.531,5.058c0.422,0.141,0.843,0.207,1.265,0.207c1.671,0,3.233-1.059,3.796-2.733
			C512.129,43.252,514.231,33.329,496.422,15.52z"/>
	</g>
</g>
<g>
	<g>
		<path d="M473.785,94.69l-10.732-10.732c-1.561-1.562-4.093-1.562-5.655,0s-1.562,4.093,0,5.655l10.732,10.732
			c0.781,0.781,1.805,1.171,2.827,1.171c1.024,0,2.047-0.39,2.828-1.171C475.347,98.783,475.347,96.252,473.785,94.69z"/>
	</g>
</g>
<g>
	<g>
		<path d="M476.612,91.862c-1.562-1.562-4.093-1.562-5.655,0l-5.655,5.655c-1.562,1.562-1.562,4.093,0,5.655
			c0.781,0.781,1.805,1.172,2.828,1.172s2.047-0.39,2.827-1.172l5.655-5.655C478.174,95.955,478.174,93.424,476.612,91.862z"/>
	</g>
</g>
<g>
	<g>
		<path d="M490.75,77.724l-9.889-9.896c-1.561-1.562-4.093-1.562-5.655,0c-1.562,1.558-1.562,4.093,0,5.655l9.889,9.896
			c0.781,0.781,1.805,1.172,2.828,1.172s2.046-0.39,2.827-1.172C492.312,81.821,492.312,79.286,490.75,77.724z"/>
	</g>
</g>
<g>
	<g>
		<path d="M493.577,74.898c-1.561-1.562-4.092-1.562-5.654,0l-5.655,5.655c-1.562,1.562-1.562,4.093,0,5.655
			c0.781,0.78,1.804,1.171,2.827,1.171s2.047-0.391,2.828-1.171l5.654-5.655C495.139,78.991,495.139,76.46,493.577,74.898z"/>
	</g>
</g>
<g>
	<g>
		<path d="M510.558,57.933c-1.562-1.562-4.093-1.562-5.655,0l-5.655,5.655c-1.562,1.562-1.562,4.093,0,5.655
			c0.781,0.78,1.805,1.171,2.827,1.171c1.024,0,2.047-0.391,2.828-1.171l5.655-5.655C512.12,62.026,512.12,59.495,510.558,57.933z"
			/>
	</g>
</g>
<g>
	<g>
		<path d="M507.73,60.756l-9.061-9.045c-1.561-1.554-4.093-1.561-5.655,0.008c-1.562,1.562-1.562,4.093,0,5.655l9.061,9.045
			c0.781,0.777,1.805,1.168,2.828,1.168c1.024,0,2.047-0.391,2.827-1.176C509.292,64.849,509.292,62.318,507.73,60.756z"/>
	</g>
</g>
<g>
	<g>
		<path d="M427.967,48.872L417.235,38.14c-1.561-1.562-4.093-1.562-5.655,0s-1.562,4.093,0,5.655l10.732,10.732
			c0.781,0.78,1.805,1.171,2.828,1.171c1.022,0,2.046-0.39,2.827-1.171C429.529,52.965,429.529,50.434,427.967,48.872z"/>
	</g>
</g>
<g>
	<g>
		<path d="M420.061,35.313c-1.561-1.562-4.092-1.562-5.654,0l-5.655,5.655c-1.562,1.562-1.562,4.093,0,5.655
			c0.781,0.78,1.804,1.171,2.827,1.171c1.024,0,2.047-0.391,2.828-1.171l5.654-5.655C421.623,39.406,421.623,36.875,420.061,35.313z
			"/>
	</g>
</g>
<g>
	<g>
		<path d="M444.103,31.06l-9.903-9.889c-1.562-1.555-4.093-1.558-5.655,0.004c-1.562,1.566-1.562,4.097,0,5.659l9.903,9.888
			c0.781,0.777,1.805,1.167,2.828,1.167c1.024,0,2.047-0.39,2.827-1.17C445.665,35.153,445.665,32.622,444.103,31.06z"/>
	</g>
</g>
<g>
	<g>
		<path d="M437.027,18.347c-1.562-1.562-4.093-1.562-5.655,0l-5.655,5.655c-1.562,1.562-1.562,4.093,0,5.655
			c0.781,0.781,1.805,1.172,2.828,1.172c1.022,0,2.046-0.391,2.827-1.172l5.655-5.655C438.589,22.44,438.589,19.909,437.027,18.347z
			"/>
	</g>
</g>
<g>
	<g>
		<path d="M453.992,1.375c-1.561-1.562-4.093-1.562-5.655,0l-5.654,5.655c-1.562,1.562-1.562,4.093,0,5.655
			c0.78,0.781,1.804,1.171,2.827,1.171s2.046-0.391,2.827-1.171l5.655-5.655C455.554,5.468,455.554,2.937,453.992,1.375z"/>
	</g>
</g>
<g>
	<g>
		<path d="M460.21,13.255l-9.045-9.053c-1.562-1.562-4.093-1.562-5.655,0c-1.562,1.558-1.562,4.093,0,5.655l9.045,9.053
			c0.781,0.78,1.804,1.171,2.827,1.171c1.023,0,2.047-0.391,2.828-1.171C461.772,17.352,461.772,14.817,460.21,13.255z"/>
	</g>
</g>
<g>
</g>
<g>
</g>
<g>
</g>
<g>
</g>
<g>
</g>
<g>
</g>
<g>
</g>
<g>
</g>
<g>
</g>
<g>
</g>
<g>
</g>
<g>
</g>
<g>
</g>
<g>
</g>
<g>
</g>
</svg>
