<?xml version="1.0" encoding="iso-8859-1"?>
<!-- Generator: Adobe Illustrator 19.0.0, SVG Export Plug-In . SVG Version: 6.00 Build 0)  -->
<svg version="1.1" id="Capa_1" xmlns="http://www.w3.org/2000/svg" xmlns:xlink="http://www.w3.org/1999/xlink" x="0px" y="0px"
	 viewBox="0 0 511.875 511.875" style="enable-background:new 0 0 511.875 511.875;" xml:space="preserve">
<g>
	<g>
		<path d="M471.643,19.518h-0.078c-2.21,0-3.96,1.789-3.96,4c0,2.21,1.836,3.999,4.038,3.999c2.211,0,3.999-1.789,3.999-3.999
			C475.642,21.307,473.854,19.518,471.643,19.518z"/>
	</g>
</g>
<g>
	<g>
		<path d="M446.188,50.622h-0.078c-2.211,0-3.96,1.788-3.96,3.999c0,2.21,1.827,3.999,4.038,3.999c2.21,0,3.999-1.789,3.999-3.999
			C450.187,52.41,448.398,50.622,446.188,50.622z"/>
	</g>
</g>
<g>
	<g>
		<path d="M488.609,36.484h-0.078c-2.211,0-3.961,1.788-3.961,3.999c0,2.21,1.836,3.999,4.039,3.999c2.21,0,3.998-1.789,3.998-3.999
			C492.607,38.272,490.819,36.484,488.609,36.484z"/>
	</g>
</g>
<g>
	<g>
		<path d="M457.505,61.931h-0.078c-2.21,0-3.96,1.789-3.96,3.999c0,2.211,1.836,3.999,4.038,3.999c2.211,0,4-1.788,4-3.999
			C461.505,63.72,459.716,61.931,457.505,61.931z"/>
	</g>
</g>
<g>
	<g>
		<path d="M204.818,307.066c-22.659-22.666-52.786-35.148-84.83-35.148c-32.048,0-62.174,12.482-84.833,35.148
			C12.491,329.734,0.01,359.853,0.01,391.908c0,32.041,12.482,62.166,35.145,84.826c22.655,22.659,52.785,35.141,84.829,35.141
			c32.048,0,62.179-12.491,84.834-35.149c22.664-22.652,35.145-52.777,35.145-84.834
			C239.959,359.853,227.481,329.718,204.818,307.066z M199.163,471.07c-21.148,21.161-49.267,32.807-79.179,32.807
			c-29.907,0-58.027-11.647-79.174-32.799c-21.153-21.15-32.802-49.27-32.802-79.17c0-29.916,11.65-58.033,32.802-79.185
			c21.148-21.153,49.267-32.807,79.178-32.807c29.908,0,58.027,11.654,79.175,32.806c21.152,21.145,32.798,49.262,32.802,79.17
			C231.965,421.808,220.314,449.927,199.163,471.07z"/>
	</g>
</g>
<g>
	<g>
		<path d="M193.511,318.376c-19.639-19.637-45.752-30.453-73.527-30.453c-27.775,0-53.883,10.816-73.519,30.453
			c-40.539,40.539-40.539,106.51,0,147.047c19.636,19.637,45.748,30.455,73.519,30.455c27.779,0,53.892-10.818,73.523-30.463
			c19.637-19.636,30.455-45.747,30.455-73.523S213.148,338.013,193.511,318.376z M187.853,459.76
			c-18.125,18.129-42.225,28.119-67.869,28.119c-25.635,0-49.739-9.99-67.864-28.111c-37.421-37.422-37.421-98.308,0-135.736
			c18.125-18.129,42.229-28.111,67.864-28.111c25.64,0,49.744,9.983,67.873,28.111c18.125,18.121,28.106,42.224,28.106,67.859
			C215.963,417.533,205.978,441.631,187.853,459.76z"/>
	</g>
</g>
<g>
	<g>
		<path d="M196.335,462.588l-2.828-2.826c-1.561-1.562-4.092-1.562-5.654,0c-1.562,1.562-1.562,4.092,0,5.654l2.827,2.828
			c0.781,0.781,1.805,1.172,2.827,1.172c1.024,0,2.047-0.391,2.828-1.172C197.897,466.682,197.897,464.15,196.335,462.588z"/>
	</g>
</g>
<g>
	<g>
		<path d="M52.119,318.377l-2.827-2.826c-1.562-1.562-4.093-1.562-5.655,0c-1.562,1.56-1.562,4.092,0,5.654l2.828,2.828
			c0.78,0.781,1.804,1.17,2.827,1.17c1.024,0,2.046-0.389,2.827-1.17C53.681,322.471,53.681,319.939,52.119,318.377z"/>
	</g>
</g>
<g>
	<g>
		<path d="M207.454,448.263l-3.28-2.289c-1.828-1.266-4.311-0.828-5.569,0.992c-1.262,1.812-0.82,4.304,0.992,5.568l3.28,2.289
			c0.699,0.485,1.496,0.719,2.285,0.719c1.264,0,2.506-0.601,3.284-1.711C209.708,452.021,209.266,449.529,207.454,448.263z"/>
	</g>
</g>
<g>
	<g>
		<path d="M40.373,331.273l-3.276-2.289c-1.812-1.266-4.303-0.82-5.565,0.992c-1.266,1.804-0.824,4.302,0.988,5.568l3.276,2.289
			c0.695,0.485,1.496,0.719,2.284,0.719c1.261,0,2.504-0.601,3.281-1.711C42.626,335.029,42.185,332.539,40.373,331.273z"/>
	</g>
</g>
<g>
	<g>
		<path d="M215.901,432.211l-3.616-1.672c-2.007-0.945-4.382-0.062-5.312,1.938c-0.929,2.006-0.059,4.389,1.945,5.311l3.616,1.688
			c0.543,0.25,1.118,0.367,1.68,0.367c1.511,0,2.953-0.851,3.632-2.321C218.776,435.522,217.905,433.149,215.901,432.211z"/>
	</g>
</g>
<g>
	<g>
		<path d="M31.063,346.027l-3.636-1.688c-2.004-0.937-4.382-0.062-5.312,1.938c-0.93,2.007-0.059,4.39,1.944,5.312l3.637,1.686
			c0.543,0.258,1.117,0.375,1.679,0.375c1.511,0,2.957-0.859,3.633-2.311C33.937,349.332,33.067,346.949,31.063,346.027z"/>
	</g>
</g>
<g>
	<g>
		<path d="M221.462,414.967l-3.874-1.047c-2.117-0.563-4.323,0.695-4.897,2.826c-0.574,2.14,0.695,4.328,2.827,4.906l3.875,1.031
			c0.348,0.094,0.694,0.141,1.038,0.141c1.766,0,3.379-1.172,3.859-2.968C224.863,417.731,223.595,415.529,221.462,414.967z"/>
	</g>
</g>
<g>
	<g>
		<path d="M24.442,362.163l-3.874-1.029c-2.089-0.531-4.324,0.701-4.894,2.842c-0.566,2.125,0.703,4.321,2.84,4.891l3.874,1.031
			c0.343,0.094,0.687,0.133,1.031,0.133c1.765,0,3.386-1.18,3.863-2.977C27.848,364.929,26.579,362.733,24.442,362.163z"/>
	</g>
</g>
<g>
	<g>
		<path d="M223.928,396.993l-3.991-0.352c-2.207-0.187-4.141,1.436-4.336,3.631c-0.194,2.203,1.434,4.141,3.633,4.336l3.991,0.352
			c0.121,0.008,0.238,0.016,0.355,0.016c2.049,0,3.796-1.57,3.98-3.649C227.755,399.124,226.126,397.188,223.928,396.993z"/>
	</g>
</g>
<g>
	<g>
		<path d="M20.724,379.209l-3.995-0.336c-2.159-0.211-4.131,1.451-4.319,3.646c-0.188,2.203,1.449,4.14,3.647,4.32l3.995,0.336
			c0.113,0.016,0.227,0.016,0.34,0.016c2.059,0,3.804-1.578,3.979-3.664C24.559,381.324,22.923,379.397,20.724,379.209z"/>
	</g>
</g>
<g>
	<g>
		<path d="M223.225,378.865l-3.999,0.352c-2.199,0.195-3.827,2.131-3.633,4.334c0.183,2.078,1.929,3.648,3.98,3.648
			c0.117,0,0.234-0.008,0.356-0.015l3.999-0.352c2.198-0.188,3.827-2.133,3.632-4.336
			C227.369,380.301,225.47,378.685,223.225,378.865z"/>
	</g>
</g>
<g>
	<g>
		<path d="M20.029,396.642l-3.991,0.359c-2.198,0.203-3.823,2.139-3.624,4.342c0.187,2.079,1.933,3.641,3.979,3.641
			c0.121,0,0.242,0,0.364-0.016l3.991-0.359c2.199-0.203,3.823-2.141,3.624-4.344C24.173,398.062,22.228,396.454,20.029,396.642z"/>
	</g>
</g>
<g>
	<g>
		<path d="M224.291,363.96c-0.566-2.125-2.761-3.388-4.897-2.826l-3.883,1.045c-2.132,0.563-3.397,2.758-2.827,4.891
			c0.476,1.789,2.093,2.969,3.858,2.969c0.343,0,0.691-0.047,1.039-0.142l3.882-1.031
			C223.596,368.288,224.86,366.101,224.291,363.96z"/>
	</g>
</g>
<g>
	<g>
		<path d="M27.274,416.73c-0.582-2.139-2.785-3.373-4.909-2.803l-3.866,1.055c-2.133,0.578-3.391,2.779-2.809,4.904
			c0.484,1.781,2.097,2.953,3.854,2.953c0.352,0,0.704-0.047,1.055-0.14l3.866-1.055C26.598,421.058,27.856,418.863,27.274,416.73z"
			/>
	</g>
</g>
<g>
	<g>
		<path d="M217.865,346.3c-0.926-2.008-3.3-2.891-5.304-1.961l-3.647,1.68c-2.008,0.922-2.886,3.305-1.961,5.305
			c0.676,1.467,2.121,2.326,3.637,2.326c0.558,0,1.128-0.117,1.667-0.367l3.647-1.678
			C217.912,350.683,218.791,348.308,217.865,346.3z"/>
	</g>
</g>
<g>
	<g>
		<path d="M32.995,432.463c-0.941-2-3.32-2.867-5.319-1.914l-3.633,1.711c-1.999,0.937-2.854,3.326-1.913,5.318
			c0.68,1.445,2.116,2.297,3.62,2.297c0.571,0,1.149-0.118,1.699-0.383l3.632-1.711C33.081,436.836,33.935,434.461,32.995,432.463z"
			/>
	</g>
</g>
<g>
	<g>
		<path d="M208.453,329.984c-1.261-1.797-3.76-2.25-5.569-0.992l-3.3,2.305c-1.812,1.265-2.254,3.763-0.992,5.568
			c0.781,1.117,2.023,1.711,3.284,1.711c0.79,0,1.59-0.235,2.285-0.719l3.3-2.305C209.273,334.287,209.715,331.796,208.453,329.984z
			"/>
	</g>
</g>
<g>
	<g>
		<path d="M41.36,446.944c-1.269-1.797-3.757-2.234-5.573-0.953l-3.284,2.32c-1.805,1.273-2.234,3.773-0.957,5.568
			c0.778,1.109,2.011,1.695,3.269,1.695c0.797,0,1.602-0.242,2.304-0.734l3.284-2.32C42.207,451.249,42.636,448.756,41.36,446.944z"
			/>
	</g>
</g>
<g>
	<g>
		<path d="M196.347,315.558c-1.562-1.562-4.093-1.562-5.655,0l-2.843,2.842c-1.562,1.562-1.562,4.094,0,5.656
			c0.78,0.781,1.804,1.17,2.827,1.17c1.024,0,2.046-0.389,2.827-1.17l2.844-2.844C197.909,319.65,197.909,317.119,196.347,315.558z"
			/>
	</g>
</g>
<g>
	<g>
		<path d="M52.108,459.769c-1.565-1.547-4.096-1.539-5.654,0.031l-2.828,2.842c-1.554,1.57-1.546,4.109,0.023,5.656
			c0.781,0.781,1.796,1.164,2.816,1.164c1.027,0,2.058-0.398,2.839-1.18l2.827-2.859C53.686,463.861,53.678,461.331,52.108,459.769z
			"/>
	</g>
</g>
<g>
	<g>
		<path d="M181.929,303.459c-1.812-1.266-4.303-0.828-5.569,0.984l-2.312,3.295c-1.266,1.812-0.825,4.312,0.983,5.578
			c0.699,0.485,1.496,0.719,2.289,0.719c1.262,0,2.503-0.594,3.281-1.703l2.312-3.312
			C184.178,307.215,183.737,304.725,181.929,303.459z"/>
	</g>
</g>
<g>
	<g>
		<path d="M64.926,470.54c-1.808-1.274-4.308-0.821-5.565,0.99l-2.289,3.297c-1.265,1.813-0.816,4.297,0.996,5.561
			c0.695,0.485,1.492,0.719,2.281,0.719c1.265,0,2.507-0.594,3.284-1.718l2.288-3.281C67.187,474.296,66.738,471.796,64.926,470.54z
			"/>
	</g>
</g>
<g>
	<g>
		<path d="M165.634,294.055c-2.002-0.937-4.381-0.078-5.314,1.922l-1.711,3.654c-0.937,2-0.074,4.382,1.926,5.312
			c0.545,0.266,1.124,0.383,1.69,0.383c1.504,0,2.945-0.852,3.624-2.304l1.711-3.656
			C168.497,297.367,167.634,294.985,165.634,294.055z"/>
	</g>
</g>
<g>
	<g>
		<path d="M79.419,478.905c-2.023-0.938-4.386-0.047-5.311,1.951l-1.684,3.625c-0.93,2.016-0.059,4.391,1.944,5.311
			c0.547,0.258,1.118,0.375,1.68,0.375c1.512,0,2.956-0.859,3.632-2.31l1.684-3.641C82.294,482.216,81.423,479.843,79.419,478.905z"
			/>
	</g>
</g>
<g>
	<g>
		<path d="M147.943,287.604c-2.112-0.57-4.323,0.695-4.897,2.826L142,294.336c-0.57,2.14,0.694,4.326,2.827,4.904
			c0.348,0.094,0.695,0.133,1.039,0.133c1.764,0,3.378-1.18,3.858-2.959l1.047-3.906
			C151.341,290.368,150.076,288.182,147.943,287.604z"/>
	</g>
</g>
<g>
	<g>
		<path d="M95.134,484.63c-2.129-0.539-4.32,0.711-4.89,2.844l-1.023,3.865c-0.566,2.141,0.707,4.329,2.844,4.891
			c0.342,0.094,0.686,0.133,1.026,0.133c1.77,0,3.387-1.18,3.863-2.977l1.023-3.867C98.543,487.388,97.27,485.2,95.134,484.63z"/>
	</g>
</g>
<g>
	<g>
		<path d="M129.42,284.345c-2.187-0.195-4.144,1.422-4.343,3.625l-0.363,4.021c-0.199,2.203,1.426,4.141,3.625,4.344
			c0.121,0.016,0.242,0.016,0.363,0.016c2.046,0,3.792-1.562,3.98-3.641l0.363-4.023C133.244,286.493,131.619,284.54,129.42,284.345
			z"/>
	</g>
</g>
<g>
	<g>
		<path d="M111.611,487.529c-2.171-0.219-4.135,1.451-4.319,3.646l-0.336,4c-0.188,2.203,1.449,4.13,3.647,4.318
			c0.113,0.016,0.227,0.016,0.34,0.016c2.058,0,3.808-1.576,3.98-3.662l0.335-4C115.446,489.644,113.81,487.717,111.611,487.529z"/>
	</g>
</g>
<g>
	<g>
		<path d="M114.916,287.978c-0.187-2.195-2.156-3.797-4.331-3.633c-2.203,0.195-3.828,2.133-3.637,4.334l0.352,4.016
			c0.179,2.086,1.929,3.656,3.979,3.656c0.117,0,0.234,0,0.352-0.016c2.203-0.187,3.827-2.133,3.636-4.328L114.916,287.978z"/>
	</g>
</g>
<g>
	<g>
		<path d="M132.69,491.151c-0.199-2.201-2.047-3.873-4.343-3.623c-2.199,0.203-3.824,2.139-3.625,4.342l0.359,4
			c0.187,2.078,1.933,3.639,3.979,3.639c0.117,0,0.238,0,0.364-0.016c2.199-0.203,3.824-2.139,3.625-4.342L132.69,491.151z"/>
	</g>
</g>
<g>
	<g>
		<path d="M97.986,294.351l-1.039-3.906c-0.57-2.139-2.757-3.389-4.893-2.842c-2.137,0.571-3.406,2.764-2.84,4.889l1.039,3.906
			c0.476,1.795,2.093,2.975,3.862,2.975c0.34,0,0.687-0.04,1.032-0.133C97.283,298.669,98.552,296.476,97.986,294.351z"/>
	</g>
</g>
<g>
	<g>
		<path d="M150.78,491.316l-1.047-3.865c-0.574-2.132-2.772-3.406-4.905-2.812c-2.129,0.578-3.39,2.773-2.812,4.904l1.046,3.867
			c0.48,1.781,2.093,2.953,3.855,2.953c0.346,0,0.698-0.039,1.051-0.141C150.096,495.652,151.358,493.449,150.78,491.316z"/>
	</g>
</g>
<g>
	<g>
		<path d="M81.379,299.645l-1.699-3.654c-0.926-2-3.285-2.891-5.312-1.953c-2.003,0.938-2.874,3.313-1.944,5.311l1.698,3.672
			c0.676,1.453,2.121,2.312,3.633,2.312c0.563,0,1.132-0.117,1.679-0.376C81.438,304.036,82.309,301.653,81.379,299.645z"/>
	</g>
</g>
<g>
	<g>
		<path d="M167.572,484.489l-1.68-3.633c-0.929-1.998-3.292-2.889-5.307-1.951c-2.004,0.93-2.879,3.303-1.949,5.311l1.68,3.633
			c0.675,1.459,2.12,2.318,3.632,2.318c0.558,0,1.133-0.117,1.675-0.375C167.627,488.872,168.502,486.497,167.572,484.489z"/>
	</g>
</g>
<g>
	<g>
		<path d="M65.944,307.754l-2.308-3.311c-1.261-1.812-3.749-2.25-5.569-0.992c-1.808,1.257-2.253,3.756-0.992,5.568l2.309,3.312
			c0.777,1.109,2.018,1.711,3.284,1.711c0.79,0,1.586-0.234,2.281-0.718C66.76,312.066,67.206,309.566,65.944,307.754z"/>
	</g>
</g>
<g>
	<g>
		<path d="M182.928,474.812l-2.281-3.281c-1.257-1.81-3.749-2.264-5.569-0.998c-1.811,1.264-2.261,3.756-0.999,5.576l2.28,3.281
			c0.777,1.107,2.023,1.709,3.288,1.709c0.789,0,1.582-0.226,2.281-0.711C183.74,479.124,184.189,476.632,182.928,474.812z"/>
	</g>
</g>
<g>
	<g>
		<path d="M52.116,438.804c-2.21,0-3.999,1.789-3.999,4v11.309c0,2.211,1.789,4,3.999,4c2.211,0,3.999-1.789,3.999-4v-11.309
			C56.115,440.593,54.327,438.804,52.116,438.804z"/>
	</g>
</g>
<g>
	<g>
		<path d="M69.089,455.769H57.771c-2.21,0-3.999,1.789-3.999,4c0,2.209,1.789,3.998,3.999,3.998h11.318
			c2.21,0,3.999-1.789,3.999-3.998C73.088,457.558,71.299,455.769,69.089,455.769z"/>
	</g>
</g>
<g>
	<g>
		<path d="M66.257,428.665c-1.561-1.562-4.093-1.562-5.655,0l-11.313,11.311c-1.562,1.562-1.562,4.092,0,5.654
			c0.781,0.781,1.805,1.172,2.827,1.172c1.023,0,2.047-0.39,2.828-1.172l11.313-11.311
			C67.819,432.759,67.819,430.227,66.257,428.665z"/>
	</g>
</g>
<g>
	<g>
		<path d="M83.227,445.63c-1.562-1.562-4.093-1.562-5.655,0l-11.311,11.311c-1.562,1.562-1.562,4.093,0,5.654
			c0.781,0.781,1.805,1.172,2.828,1.172s2.046-0.391,2.827-1.172l11.311-11.309C84.789,449.724,84.789,447.192,83.227,445.63z"/>
	</g>
</g>
<g>
	<g>
		<path d="M83.227,445.63l-16.97-16.965c-1.561-1.562-4.093-1.562-5.655,0s-1.562,4.093,0,5.654l16.97,16.967
			c0.781,0.781,1.804,1.172,2.827,1.172s2.047-0.39,2.828-1.172C84.789,449.724,84.789,447.192,83.227,445.63z"/>
	</g>
</g>
<g>
	<g>
		<path d="M423.357,71.636c-1.531-1.582-4.077-1.605-5.655-0.07L193.542,290.07c-1.581,1.531-1.612,4.07-0.07,5.656
			c0.781,0.797,1.824,1.203,2.863,1.203c1.007,0,2.015-0.375,2.792-1.14l224.16-218.498
			C424.873,75.752,424.904,73.218,423.357,71.636z"/>
	</g>
</g>
<g>
	<g>
		<path d="M482.719,29.172c-1.562-1.562-4.093-1.562-5.655,0L80.395,425.838c-1.562,1.562-1.562,4.094,0,5.656
			c0.781,0.781,1.805,1.172,2.828,1.172c1.023,0,2.046-0.391,2.827-1.172L482.719,34.827
			C484.281,33.265,484.281,30.734,482.719,29.172z"/>
	</g>
</g>
<g>
	<g>
		<path d="M440.251,88.531c-1.57-1.534-4.116-1.511-5.655,0.07L216.104,312.753c-1.542,1.586-1.511,4.123,0.07,5.654
			c0.777,0.766,1.785,1.141,2.793,1.141c1.038,0,2.081-0.406,2.863-1.203L440.321,94.186
			C441.868,92.604,441.837,90.07,440.251,88.531z"/>
	</g>
</g>
<g>
	<g>
		<path d="M427.435,53.656c-2.102-0.707-4.367,0.433-5.062,2.526l-5.671,16.981c-0.702,2.093,0.429,4.359,2.531,5.058
			c0.413,0.141,0.843,0.207,1.265,0.207c1.671,0,3.234-1.058,3.789-2.734l5.67-16.98C430.653,56.62,429.528,54.355,427.435,53.656z"
			/>
	</g>
</g>
<g>
	<g>
		<path d="M458.224,84.457c-0.696-2.088-2.96-3.237-5.062-2.526l-16.965,5.671c-2.1,0.699-3.233,2.964-2.53,5.057
			c0.563,1.675,2.116,2.734,3.796,2.734c0.413,0,0.843-0.066,1.265-0.207l16.966-5.671
			C457.794,88.815,458.927,86.551,458.224,84.457z"/>
	</g>
</g>
<g>
	<g>
		<path d="M502.879,49.394c-1.329-1.778-3.835-2.125-5.6-0.801l-45.24,33.931c-1.774,1.324-2.133,3.831-0.805,5.596
			c0.789,1.051,1.983,1.602,3.202,1.602c0.836,0,1.679-0.262,2.398-0.801l45.24-33.93C503.848,53.666,504.207,51.16,502.879,49.394z
			"/>
	</g>
</g>
<g>
	<g>
		<path d="M462.49,9.009c-1.765-1.316-4.265-0.969-5.593,0.801l-33.93,45.24c-1.328,1.765-0.969,4.273,0.797,5.596
			c0.718,0.539,1.561,0.801,2.397,0.801c1.218,0,2.414-0.551,3.203-1.601l33.931-45.24C464.623,12.84,464.263,10.332,462.49,9.009z"
			/>
	</g>
</g>
<g>
	<g>
		<path d="M502.511,9.373C496.466,3.327,488.437,0,479.891,0h-0.008c-8.545,0.004-16.582,3.335-22.62,9.381
			c-1.554,1.565-1.554,4.096,0.008,5.658c0.781,0.777,1.797,1.168,2.828,1.168c1.016,0,2.046-0.391,2.827-1.172
			c9.045-9.084,24.855-9.076,33.931-0.008c1.561,1.562,4.092,1.562,5.654,0C504.073,13.466,504.073,10.935,502.511,9.373z"/>
	</g>
</g>
<g>
	<g>
		<path d="M502.527,9.366c-1.561-1.563-4.092-1.559-5.654-0.004c-1.563,1.561-1.563,4.093-0.008,5.658
			c9.35,9.357,9.35,24.581,0,33.938c-1.554,1.566-1.554,4.097,0.008,5.659c0.781,0.777,1.796,1.168,2.827,1.168
			c1.015,0,2.046-0.391,2.827-1.171C514.978,42.14,514.978,21.84,502.527,9.366z"/>
	</g>
</g>
<g>
	<g>
		<path d="M175.172,314.089c-1.561-1.562-4.092-1.562-5.654,0L69.086,414.521c-1.562,1.56-1.562,4.092,0,5.654
			c0.78,0.781,1.804,1.172,2.827,1.172c1.023,0,2.046-0.39,2.827-1.172l100.432-100.432
			C176.734,318.181,176.734,315.651,175.172,314.089z"/>
	</g>
</g>
<g>
	<g>
		<path d="M197.8,336.716c-1.561-1.562-4.092-1.562-5.654,0L91.71,437.148c-1.562,1.562-1.562,4.094,0,5.656
			c0.78,0.779,1.804,1.17,2.827,1.17s2.047-0.391,2.827-1.17L197.8,342.372C199.362,340.81,199.362,338.278,197.8,336.716z"/>
	</g>
</g>
<g>
	<g>
		<path d="M117.114,422.957l-28.279-28.275c-1.561-1.562-4.092-1.562-5.654,0c-1.562,1.562-1.562,4.092,0,5.654l28.278,28.275
			c0.781,0.781,1.805,1.172,2.828,1.172c1.022,0,2.046-0.391,2.827-1.172C118.676,427.049,118.676,424.519,117.114,422.957z"/>
	</g>
</g>
<g>
</g>
<g>
</g>
<g>
</g>
<g>
</g>
<g>
</g>
<g>
</g>
<g>
</g>
<g>
</g>
<g>
</g>
<g>
</g>
<g>
</g>
<g>
</g>
<g>
</g>
<g>
</g>
<g>
</g>
</svg>
