<?xml version="1.0" encoding="iso-8859-1"?>
<!-- Generator: Adobe Illustrator 19.0.0, SVG Export Plug-In . SVG Version: 6.00 Build 0)  -->
<svg version="1.1" id="Capa_1" xmlns="http://www.w3.org/2000/svg" xmlns:xlink="http://www.w3.org/1999/xlink" x="0px" y="0px"
	 viewBox="0 0 512 512" style="enable-background:new 0 0 512 512;" xml:space="preserve">
<g>
	<g>
		<g>
			<path d="M486.4,358.4H349.7l139.013-80.25c12.182-7.108,16.355-22.71,9.346-34.95l-51.187-88.638
				c-3.375-5.901-8.965-10.21-15.53-11.971c-6.565-1.761-13.562-0.828-19.436,2.592L305.265,206.74l61.51-106.578
				c3.443-5.871,4.396-12.875,2.647-19.452c-1.749-6.578-6.055-12.183-11.959-15.568l-88.688-51.213
				c-12.241-6.993-27.83-2.812-34.929,9.367L153.6,162.284V25.6C153.585,11.468,142.132,0.015,128,0H25.6
				C11.468,0.015,0.015,11.468,0,25.6v460.8c0.015,14.132,11.468,25.585,25.6,25.6h460.8c14.132-0.015,25.585-11.468,25.6-25.6V384
				C511.985,369.868,500.532,358.415,486.4,358.4z M17.067,25.6c0.006-4.71,3.823-8.527,8.533-8.533H128
				c3.557,0.017,6.726,2.251,7.939,5.595L17.067,141.533V25.6z M136.533,486.4c-0.006,4.71-3.823,8.527-8.533,8.533H25.6
				c-4.71-0.006-8.527-3.823-8.533-8.533V370.467L136.533,251V486.4z M136.533,226.867L17.067,346.333v-78.267L136.533,148.6
				V226.867z M136.533,124.467L17.067,243.933v-78.267L136.533,46.2V124.467z M420.504,159.925c1.919-1.133,4.215-1.444,6.367-0.862
				c2.205,0.579,4.082,2.024,5.204,4.008l51.188,88.638c2.346,4.077,0.966,9.283-3.092,11.662L168.826,443.11l30.163-52.197
				l2.261,3.921c2.355,4.083,7.575,5.484,11.658,3.129l59.133-34.133c4.082-2.357,5.481-7.576,3.125-11.658l-26.919-46.636
				l9.867-17.096l31.857,55.178c2.358,4.081,7.576,5.479,11.658,3.125l59.121-34.133c4.082-2.357,5.481-7.576,3.125-11.658
				l-34.133-59.121c-2.357-4.082-7.576-5.481-11.658-3.125l-46.89,27.071l17.014-29.48L420.504,159.925z M247.467,417.418V460.8
				h-51.2v-13.826L247.467,417.418z M208.823,373.803l29.591-51.164l17.707,30.673l-44.35,25.6L208.823,373.803z M274.888,283.354
				l44.338-25.6l25.6,44.338l-44.338,25.6L274.888,283.354z M153.6,264.689l5.087-8.814l44.375,25.575l-25.62,44.387L153.6,312.084
				V264.689z M153.6,331.786l22.7,13.097c4.083,2.354,9.3,0.955,11.658-3.125l34.133-59.133c2.348-4.069,0.966-9.27-3.092-11.638
				l-59.179-34.158c-1.887-1.073-4.113-1.382-6.221-0.863v-39.544l95.025-164.585c2.368-4.057,7.565-5.447,11.642-3.113
				l88.688,51.213c1.972,1.124,3.409,2.995,3.983,5.192c0.584,2.178,0.258,4.5-0.904,6.433L231.029,301.229
				c-0.138,0.236-0.263,0.479-0.375,0.729L191.6,369.504c-0.137,0.235-0.261,0.477-0.371,0.725L153.6,435.316V331.786z
				 M494.933,486.4c-0.006,4.71-3.823,8.527-8.533,8.533H152.028c1.012-2.733,1.544-5.62,1.572-8.533v-14.794l25.6-14.779v12.506
				c0,4.713,3.82,8.533,8.533,8.533H256c4.713,0,8.533-3.82,8.533-8.533v-61.768l18.201-10.507
				c-0.712,1.218-1.102,2.598-1.134,4.008v68.267c0,4.713,3.82,8.533,8.533,8.533H358.4c4.713,0,8.533-3.82,8.533-8.533v-68.267
				c0-4.713-3.82-8.533-8.533-8.533h-67.828l29.564-17.067H486.4c4.71,0.006,8.527,3.823,8.533,8.533V486.4z M298.667,460.8v-51.2
				h51.2v51.2H298.667z"/>
			<path d="M460.8,392.533h-68.267c-4.713,0-8.533,3.821-8.533,8.533v68.267c0,4.713,3.821,8.533,8.533,8.533H460.8
				c4.713,0,8.533-3.82,8.533-8.533v-68.267C469.333,396.354,465.513,392.533,460.8,392.533z M452.267,460.8h-51.2v-51.2h51.2V460.8
				z"/>
			<path d="M378.65,292.417c2.358,4.081,7.576,5.479,11.658,3.125l59.121-34.133c4.082-2.357,5.481-7.576,3.125-11.658
				l-34.133-59.121c-1.131-1.96-2.995-3.391-5.182-3.977c-2.186-0.586-4.516-0.28-6.476,0.852l-59.121,34.133
				c-4.082,2.357-5.481,7.576-3.125,11.658L378.65,292.417z M407.904,206.554l25.6,44.337l-44.338,25.6l-25.6-44.337
				L407.904,206.554z"/>
			<path d="M239.163,253.037l34.133-59.121c2.356-4.082,0.957-9.301-3.125-11.658l-59.121-34.133
				c-1.96-1.132-4.29-1.439-6.477-0.853c-2.186,0.586-4.05,2.017-5.182,3.978l-34.133,59.121c-2.356,4.082-0.957,9.301,3.125,11.658
				l59.121,34.133C231.587,258.516,236.805,257.118,239.163,253.037z M209.908,167.175l44.337,25.6l-25.6,44.338l-44.337-25.6
				L209.908,167.175z"/>
			<path d="M219.583,133.35l59.121,34.133c4.083,2.354,9.301,0.956,11.658-3.125l34.133-59.121
				c2.356-4.082,0.957-9.301-3.125-11.658L262.25,59.446c-1.959-1.136-4.29-1.444-6.478-0.858c-2.188,0.586-4.052,2.02-5.18,3.983
				l-34.133,59.121C214.103,125.774,215.502,130.994,219.583,133.35z M261.108,78.496l44.337,25.6l-25.6,44.338l-44.338-25.6
				L261.108,78.496z"/>
			<path d="M76.8,469.333c14.138,0,25.6-11.462,25.6-25.6c-0.015-14.132-11.468-25.585-25.6-25.6c-14.138,0-25.6,11.462-25.6,25.6
				C51.2,457.872,62.661,469.333,76.8,469.333z M76.8,435.2c4.713,0,8.533,3.82,8.533,8.533c-0.006,4.71-3.823,8.527-8.533,8.533
				c-4.713,0-8.533-3.82-8.533-8.533S72.087,435.2,76.8,435.2z"/>
		</g>
	</g>
</g>
<g>
</g>
<g>
</g>
<g>
</g>
<g>
</g>
<g>
</g>
<g>
</g>
<g>
</g>
<g>
</g>
<g>
</g>
<g>
</g>
<g>
</g>
<g>
</g>
<g>
</g>
<g>
</g>
<g>
</g>
</svg>
