<?xml version="1.0" encoding="iso-8859-1"?>
<!-- Generator: Adobe Illustrator 18.1.1, SVG Export Plug-In . SVG Version: 6.00 Build 0)  -->
<svg xmlns="http://www.w3.org/2000/svg" xmlns:xlink="http://www.w3.org/1999/xlink" version="1.1" id="Capa_1" x="0px" y="0px" viewBox="0 0 513.049 513.049" style="enable-background:new 0 0 513.049 513.049;" xml:space="preserve" width="512px" height="512px">
<g>
	<path d="M460.777,91c-23.999,0-44.999-14.333-62.999-43c-19.332-12.666-47.664-28.332-85-47l-13-1   c-73.333,5.332-118.667,23.666-136,55c0.667-0.663,1.667-1.33,3-2c22-9.333,48.333-11.667,79-7c34.666,5.333,44.666,19.333,30,42   l-233,369.999c-4,7.334-0.667,14,10,20l54,31c10.667,6,18.333,5.334,23-2l197-374.999c12-11.333,24-15.833,36-13.5   s22.5,7.5,31.5,15.5s13.5,15,13.5,21c12,9.333,24.168,10.833,36.499,4.5c12.334-6.333,20.834-17.333,25.5-33   C474.445,110.833,471.445,99,460.777,91z" fill="#FFFFFF"/>
</g>
<g>
</g>
<g>
</g>
<g>
</g>
<g>
</g>
<g>
</g>
<g>
</g>
<g>
</g>
<g>
</g>
<g>
</g>
<g>
</g>
<g>
</g>
<g>
</g>
<g>
</g>
<g>
</g>
<g>
</g>
</svg>
