<?xml version="1.0" encoding="iso-8859-1"?>
<!-- Generator: Adobe Illustrator 19.0.0, SVG Export Plug-In . SVG Version: 6.00 Build 0)  -->
<svg xmlns="http://www.w3.org/2000/svg" xmlns:xlink="http://www.w3.org/1999/xlink" version="1.1" id="Capa_1" x="0px" y="0px" viewBox="0 0 512 512" style="enable-background:new 0 0 512 512;" xml:space="preserve" width="512px" height="512px">
<g>
	<g>
		<path d="M53.218,282.03c-13.461,0-24.006,15.065-24.006,34.299s10.544,34.299,24.006,34.299c13.462,0,24.006-15.065,24.006-34.299    S66.679,282.03,53.218,282.03z M53.218,336.055c-3.846,0-9.433-7.684-9.433-19.726c0-12.042,5.586-19.726,9.433-19.726    c3.846,0,9.433,7.684,9.433,19.726C62.651,328.371,57.064,336.055,53.218,336.055z" fill="#eae5de"/>
	</g>
</g>
<g>
	<g>
		<path d="M458.782,248.714h-12.987c12.336-12.394,20.274-31.557,20.274-53.043c0-37.284-23.873-67.616-53.218-67.616H99.149    c-29.344,0-53.218,30.332-53.218,67.616c0,21.486,7.938,40.649,20.274,53.043H53.247c-0.01,0-0.02-0.001-0.029-0.001    C23.873,248.713,0,279.045,0,316.329s23.873,67.616,53.218,67.616c0.01,0,0.02-0.001,0.029-0.001h91.804    c0.01,0,0.02,0.001,0.029,0.001c0.009,0,0.02-0.001,0.029-0.001h290.707h22.966c29.344,0,53.218-30.332,53.218-67.615    C512,279.046,488.127,248.714,458.782,248.714z M412.851,142.629c21.309,0,38.645,23.795,38.645,53.043    s-17.336,53.042-38.645,53.042H132.094c12.335-12.394,20.273-31.556,20.273-53.042c0-21.486-7.938-40.649-20.273-53.043H412.851z     M60.504,195.671c0-29.248,17.336-53.043,38.645-53.043c21.309,0,38.645,23.795,38.645,53.043    c0,29.248-17.336,53.042-38.645,53.042C77.84,248.713,60.504,224.919,60.504,195.671z M112.134,263.287    c-5.2,5.226-9.616,11.652-12.986,18.954c-3.37-7.302-7.785-13.728-12.986-18.954H112.134z M53.245,369.371h-0.027    c-0.004,0-0.007,0-0.011,0c-21.304-0.008-38.634-23.8-38.634-53.042s17.33-53.034,38.634-53.042c0.004,0,0.007,0,0.011,0h0.027    c21.296,0.02,38.617,23.806,38.617,53.042C91.862,345.564,74.541,369.35,53.245,369.371z M86.163,369.37    c5.2-5.226,9.616-11.652,12.986-18.953c3.37,7.302,7.785,13.728,12.986,18.953H86.163z M145.107,369.371h-0.027h-0.027    c-21.296-0.02-38.617-23.806-38.617-53.042c0-29.235,17.321-53.021,38.617-53.042h0.027h0.027    c21.296,0.02,38.617,23.806,38.617,53.042C183.724,345.564,166.403,369.35,145.107,369.371z M458.782,369.37h-22.966H178.025    c12.334-12.394,20.272-31.556,20.272-53.042c0-21.486-7.938-40.648-20.272-53.042h257.791h22.966    c21.309,0,38.645,23.794,38.645,53.042S480.091,369.37,458.782,369.37z" fill="#eae5de"/>
	</g>
</g>
<g>
	<g>
		<path d="M145.08,282.03c-13.461,0-24.006,15.065-24.006,34.299c0,19.233,10.545,34.299,24.006,34.299s24.006-15.065,24.006-34.299    S158.541,282.03,145.08,282.03z M145.08,336.055c-3.846,0-9.433-7.684-9.433-19.726c0-12.042,5.587-19.726,9.433-19.726    s9.433,7.684,9.433,19.726S148.926,336.055,145.08,336.055z" fill="#eae5de"/>
	</g>
</g>
<g>
	<g>
		<path d="M99.149,161.371c-13.462,0-24.006,15.066-24.006,34.3s10.544,34.299,24.006,34.299c13.461,0,24.006-15.065,24.006-34.299    C123.155,176.437,112.61,161.371,99.149,161.371z M99.149,215.398c-3.846,0-9.433-7.684-9.433-19.726s5.587-19.727,9.433-19.727    s9.433,7.685,9.433,19.727S102.995,215.398,99.149,215.398z" fill="#eae5de"/>
	</g>
</g>
<g>
	<g>
		<path d="M411.125,158.771h-57.418c-8.62,0-16.009,4.432-22.527,8.341c-5.371,3.222-10.445,6.266-15.031,6.266    c-5.274,0-12.103-3.337-18.707-6.564c-8.093-3.954-16.461-8.043-25.104-8.043h-98.074c-4.024,0-7.287,3.262-7.287,7.287    s3.263,7.287,7.287,7.287h98.074c5.274,0,12.103,3.337,18.707,6.564c8.092,3.954,16.461,8.043,25.104,8.043    c8.62,0,16.009-4.432,22.527-8.341c5.371-3.222,10.445-6.266,15.031-6.266h57.418c4.024,0,7.287-3.262,7.287-7.287    S415.15,158.771,411.125,158.771z" fill="#eae5de"/>
	</g>
</g>
<g>
	<g>
		<path d="M263.638,188.385h-64.335c-14.181,0-25.718,11.537-25.718,25.717c0,14.181,11.537,25.718,25.718,25.718    c4.024,0,7.287-3.262,7.287-7.287c0-4.025-3.262-7.287-7.287-7.287c-6.145,0-11.145-5-11.145-11.145    c0-6.145,5-11.144,11.145-11.144h64.335c4.024,0,7.287-3.262,7.287-7.287C270.925,191.647,267.662,188.385,263.638,188.385z" fill="#eae5de"/>
	</g>
</g>
<g>
	<g>
		<path d="M404.828,221.02H295.999c-4.024,0-7.287,3.262-7.287,7.287c0,4.025,3.262,7.287,7.287,7.287h108.829    c4.024,0,7.287-3.262,7.287-7.287C412.114,224.282,408.852,221.02,404.828,221.02z" fill="#eae5de"/>
	</g>
</g>
<g>
	<g>
		<path d="M418.739,188.384h-34.081c-4.025,0.001-7.287,3.263-7.287,7.287c0,4.025,3.262,7.287,7.287,7.287h34.081    c4.024,0,7.287-3.262,7.287-7.287C426.026,191.646,422.764,188.384,418.739,188.384z" fill="#eae5de"/>
	</g>
</g>
<g>
	<g>
		<path d="M458.782,276.814h-98.073c-8.644,0-17.012,4.088-25.105,8.043c-6.604,3.226-13.434,6.563-18.707,6.563    c-4.585,0-9.659-3.043-15.031-6.265c-6.518-3.91-13.906-8.341-22.527-8.341h-57.418c-4.024,0-7.287,3.262-7.287,7.287    c0,4.025,3.262,7.287,7.287,7.287h57.418c4.585,0,9.659,3.043,15.031,6.265c6.518,3.91,13.906,8.341,22.527,8.341    c8.644,0,17.012-4.088,25.105-8.043c6.604-3.226,13.434-6.563,18.707-6.563h98.073c4.024,0,7.287-3.262,7.287-7.287    C466.069,280.076,462.806,276.814,458.782,276.814z" fill="#eae5de"/>
	</g>
</g>
<g>
	<g>
		<path d="M433.744,306.426h-64.335c-4.024,0-7.287,3.262-7.287,7.287c0,4.025,3.262,7.287,7.287,7.287h64.335    c6.145,0,11.145,5,11.145,11.145c0,6.145-5,11.144-11.145,11.144c-4.024,0-7.287,3.262-7.287,7.287    c0,4.025,3.262,7.286,7.287,7.286c14.181,0,25.718-11.537,25.718-25.717C459.462,317.963,447.925,306.426,433.744,306.426z" fill="#eae5de"/>
	</g>
</g>
<g>
	<g>
		<path d="M337.048,339.062H228.219c-4.024,0-7.287,3.262-7.287,7.287c0,4.025,3.262,7.287,7.287,7.287h108.829    c4.024,0,7.287-3.262,7.287-7.287C344.334,342.324,341.072,339.062,337.048,339.062z" fill="#eae5de"/>
	</g>
</g>
<g>
	<g>
		<path d="M248.389,306.425h-34.08c-4.024,0-7.287,3.262-7.287,7.287c0,4.025,3.262,7.287,7.287,7.287h34.08    c4.024,0,7.287-3.262,7.287-7.287C255.676,309.687,252.414,306.425,248.389,306.425z" fill="#eae5de"/>
	</g>
</g>
<g>
</g>
<g>
</g>
<g>
</g>
<g>
</g>
<g>
</g>
<g>
</g>
<g>
</g>
<g>
</g>
<g>
</g>
<g>
</g>
<g>
</g>
<g>
</g>
<g>
</g>
<g>
</g>
<g>
</g>
</svg>
